# xmcd
#
# Track frame offsets:
#	150
#	15132
#	28072
#	41742
#	53307
#	65760
#	78787
#	94340
#	108567
#	119852
#	136555
#	152577
#	169967
#
# Disc length: 2472 seconds
#
# Revision: 0
# Processed by: cddbd v1.5.1PL0 Copyright (c) Steve Scherf et al.
# Submitted via: EasyCDDAExtractor 8.2.2.1
#
DISCID=a009a60d
DTITLE=ฉัตรชัย มงคลทอง - ร๊อคสตอ
DYEAR=1900
DGENRE=Country
TTITLE0=เบื่อคนหลายใจ
TTITLE1=อวยพรชาวใต้
TTITLE2=หนุ่มโรงงาน
TTITLE3=สาวนุ้ยคืนมา
TTITLE4=แพ้คนมีเงิน
TTITLE5=รักคนบ้านใกล้
TTITLE6=เมียไม่มี
TTITLE7=เก็บเงินแต่งงาน
TTITLE8=คนพเนจร
TTITLE9=สาวเหมียเรียนราม
TTITLE10=หนุ่มใต้พ่ายรัก
TTITLE11=จะอยู่คอยใคร
TTITLE12=ส้มตำสะตอ
EXTD=
EXTT0=
EXTT1=
EXTT2=
EXTT3=
EXTT4=
EXTT5=
EXTT6=
EXTT7=
EXTT8=
EXTT9=
EXTT10=
EXTT11=
EXTT12=
PLAYORDER=
